<?xml version="1.0" encoding="UTF-8" standalone="no"?> <svg width="60" height="60" viewBox="0 0 60 60" fill="none" xmlns="http://www.w3.org/2000/svg">
<g clip-path="url(#clip0)">
<path d="M51.1701 28.4V47.72C51.1703 48.2572 51.0646 48.7891 50.8591 49.2854C50.6537 49.7817 50.3524 50.2327 49.9726 50.6125C49.5928 50.9923 49.1418 51.2936 48.6455 51.4991C48.1492 51.7045 47.6172 51.8102 47.0801 51.81H39.1201C38.9048 53.798 38.0462 55.6612 36.6748 57.1165C35.3034 58.5717 33.4943 59.5393 31.5226 59.872C29.5509 60.2048 27.5245 59.8846 25.7515 58.96C23.9785 58.0355 22.5559 56.5572 21.7001 54.75C21.5888 54.5104 21.5767 54.2365 21.6664 53.988C21.756 53.7394 21.9402 53.5364 22.1789 53.423C22.4175 53.3096 22.6913 53.2951 22.9406 53.3825C23.1899 53.47 23.3946 53.6524 23.5101 53.89C24.2077 55.3651 25.387 56.5585 26.8536 57.2737C28.3202 57.9888 29.9867 58.1831 31.5785 57.8244C33.1703 57.4658 34.5925 56.5756 35.6107 55.3006C36.6289 54.0255 37.1824 52.4417 37.1801 50.81C37.1788 50.6798 37.2038 50.5507 37.2537 50.4304C37.3035 50.3101 37.3771 50.2012 37.4701 50.11C37.5627 50.0155 37.6731 49.9403 37.795 49.8888C37.9169 49.8373 38.0478 49.8105 38.1801 49.81H47.0801C47.3548 49.811 47.627 49.7576 47.881 49.6529C48.135 49.5482 48.3658 49.3943 48.5601 49.2C48.7543 49.0057 48.9083 48.775 49.013 48.5209C49.1176 48.2669 49.171 47.9947 49.1701 47.72V28.4C49.1701 25.8826 48.6742 23.3898 47.7108 21.064C46.7475 18.7381 45.3354 16.6249 43.5553 14.8448C41.7752 13.0647 39.6619 11.6526 37.3361 10.6892C35.0103 9.72585 32.5175 9.23 30.0001 9.23C27.4826 9.23 24.9898 9.72585 22.664 10.6892C20.3382 11.6526 18.2249 13.0647 16.4448 14.8448C14.6647 16.6249 13.2527 18.7381 12.2893 21.064C11.3259 23.3898 10.8301 25.8826 10.8301 28.4V47.72C10.8291 47.9947 10.8825 48.2669 10.9872 48.5209C11.0919 48.775 11.2458 49.0057 11.4401 49.2C11.6343 49.3943 11.8651 49.5482 12.1191 49.6529C12.3731 49.7576 12.6453 49.811 12.9201 49.81H33.1201C33.3853 49.81 33.6396 49.9154 33.8272 50.1029C34.0147 50.2904 34.1201 50.5448 34.1201 50.81C34.1201 51.0752 34.0147 51.3296 33.8272 51.5171C33.6396 51.7046 33.3853 51.81 33.1201 51.81H12.9201C12.3829 51.8102 11.851 51.7045 11.3547 51.4991C10.8584 51.2936 10.4074 50.9923 10.0276 50.6125C9.64774 50.2327 9.34648 49.7817 9.14101 49.2854C8.93554 48.7891 8.82988 48.2572 8.83008 47.72V28.4C8.83209 22.9587 10.928 17.7269 14.6832 13.7892C18.4385 9.85152 23.565 7.50996 29.0001 7.25V1C29.0001 0.734784 29.1054 0.48043 29.293 0.292893C29.4805 0.105357 29.7349 0 30.0001 0C30.2653 0 30.5196 0.105357 30.7072 0.292893C30.8947 0.48043 31.0001 0.734784 31.0001 1V7.25C36.4351 7.50996 41.5617 9.85152 45.3169 13.7892C49.0722 17.7269 51.1681 22.9587 51.1701 28.4V28.4Z" fill="black"/>
</g>
<defs>
<clipPath id="clip0">
<rect width="60" height="60" fill="white"/>
</clipPath>
</defs>
</svg>
