<?xml version="1.0" encoding="utf-8"?>
<!-- Generator: Adobe Illustrator 24.3.0, SVG Export Plug-In . SVG Version: 6.00 Build 0)  -->
<svg version="1.1" id="Layer_1" xmlns="http://www.w3.org/2000/svg" xmlns:xlink="http://www.w3.org/1999/xlink" x="0px" y="0px"
	 viewBox="0 0 160 160" style="enable-background:new 0 0 160 160;" xml:space="preserve">
<style type="text/css">
	.st0{fill:none;}
	.st1{fill:#10162F;}
	.st2{fill:#1557FF;}
	.st3{fill:#FFFFFF;}
	.st4{fill:#009C2C;}
	.st5{fill:#FFD300;}
</style>
<g>
	<rect x="122.9" y="95.2" class="st0" width="6.3" height="39.8"/>
</g>
<g>
	<path class="st1" d="M20,3h120c11,0,20,9,20,20v113.7c0,11-9,20-20,20H20c-11,0-20-9-20-20V23C0,12,9,3,20,3z"/>
</g>
<g>
	<path class="st2" d="M98.2,21.6h38.6c3,0,5.5,2.5,5.5,5.5v53.2H92.7V27.1C92.7,24,95.2,21.6,98.2,21.6z"/>
	<path class="st1" d="M142.8,80.7H92.2V27.1c0-3.3,2.7-6,6-6h38.6c3.3,0,6,2.7,6,6V80.7z M93.2,79.7h48.6V27.1c0-2.8-2.2-5-5-5H98.2
		c-2.8,0-5,2.2-5,5V79.7z"/>
</g>
<g>
	<rect x="108.2" y="33.2" class="st1" width="35.5" height="1"/>
</g>
<g>
	<rect x="112.8" y="43.5" class="st1" width="30.9" height="1"/>
</g>
<g>
	<rect x="118.5" y="54.9" class="st1" width="25.2" height="1"/>
</g>
<g>
	<rect x="123.1" y="65.2" class="st1" width="20.6" height="1"/>
</g>
<g>
	<path class="st3" d="M88.1,108.7L88.1,108.7L88.1,108.7c5.6-0.9,10-1.7,13.3-2.4c0.7-0.1,1.4-0.3,2-0.4c1.8-0.4,3.2-0.6,4.4-0.7
		c1.2-0.1,2-0.1,2.6,0.1c0.6,0.2,1,0.5,1.3,1c0.3,0.5,0.5,1.3,0.6,2.4c0.2,1.6,0.1,3.8,0.1,6.7c0,1.2,0,2.5,0,4
		c0,1.3-0.6,2.6-1.8,3.8c-1.2,1.2-2.9,2.3-5.2,3.2c-4.4,1.9-10.5,3-17.3,3s-12.9-1.2-17.3-3c-2.2-0.9-4-2-5.2-3.2
		c-1.2-1.2-1.8-2.5-1.8-3.8c0-2,0-3.7-0.1-5.2c0-0.4,0-0.8,0-1.2c0-1.7,0-3,0.1-4c0.1-1,0.2-1.6,0.5-2c0.2-0.3,0.5-0.5,1.1-0.6
		c0.6-0.1,1.5,0,2.6,0.2c0.6,0.1,1.2,0.2,2,0.3c0.7,0.1,1.6,0.3,2.5,0.4C76.2,107.9,81.2,108.6,88.1,108.7z"/>
	<path class="st1" d="M88.2,129.8c-6.6,0-12.9-1.1-17.5-3.1c-2.3-1-4.1-2.1-5.3-3.4c-1.3-1.3-1.9-2.7-1.9-4.1c0-2,0-3.7,0-5.2l0-1.2
		c0-1.8,0-3.1,0.1-4.1c0.1-1.1,0.3-1.7,0.6-2.2c0.3-0.5,0.8-0.7,1.5-0.8c0.6-0.1,1.4,0,2.8,0.2c0.6,0.1,1.2,0.2,1.9,0.3l0.1,0
		c0.7,0.1,1.5,0.3,2.5,0.4c3.2,0.5,8.4,1.3,15.5,1.5l0.1,0c5.4-0.8,9.7-1.7,13.1-2.4c0.8-0.2,1.5-0.3,2.1-0.4
		c1.6-0.3,3.2-0.6,4.4-0.8c1.2-0.1,2.1-0.1,2.8,0.1c0.7,0.2,1.2,0.6,1.6,1.2c0.3,0.6,0.5,1.4,0.7,2.6c0.2,1.6,0.1,3.9,0.1,6.7
		c0,1.2,0,2.5,0,4c0,1.4-0.7,2.8-1.9,4.1c-1.3,1.3-3,2.4-5.3,3.4C101,128.7,94.8,129.8,88.2,129.8z M65.9,106.8c-0.1,0-0.3,0-0.4,0
		c-0.5,0-0.7,0.2-0.7,0.3c-0.2,0.3-0.3,0.9-0.4,1.7c-0.1,0.9-0.1,2.2-0.1,4l0,1.2c0,1.5,0,3.2,0,5.2c0,1.1,0.6,2.3,1.7,3.4
		c1.1,1.1,2.9,2.2,5,3.1c4.6,1.9,10.7,3,17.1,3s12.6-1.1,17.1-3c2.1-0.9,3.9-2,5-3.1c1.1-1.1,1.7-2.2,1.7-3.4c0-1.5,0-2.8,0-4
		c0-2.8,0-5-0.1-6.6c-0.1-1-0.3-1.8-0.5-2.2c-0.2-0.4-0.5-0.6-1-0.7c-0.6-0.2-1.3-0.2-2.5,0c-1.2,0.1-2.8,0.4-4.4,0.7
		c-0.6,0.1-1.3,0.3-2,0.4c-3.5,0.7-7.7,1.6-13.2,2.4l-0.1,0l0-0.5l0,0.5c-7.2-0.2-12.4-0.9-15.7-1.5c-0.9-0.2-1.7-0.3-2.5-0.4
		l-0.1,0c-0.7-0.1-1.3-0.2-1.9-0.3C67,106.8,66.4,106.8,65.9,106.8z"/>
</g>
<g>
	<path class="st3" d="M112.3,107.6c0,1.1-0.6,2.2-1.8,3.3c-1.2,1.1-2.9,2.1-5.1,2.9c-4.4,1.7-10.5,2.7-17.3,2.7
		c-6.8,0-12.9-1.1-17.3-2.7c-2.2-0.8-4-1.8-5.1-2.9c-1.2-1.1-1.8-2.2-1.8-3.3c0-1.1,0.6-2.2,1.8-3.3c1.2-1.1,2.9-2.1,5.1-2.9
		c4.4-1.7,10.5-2.7,17.3-2.7c6.8,0,12.9,1.1,17.3,2.7c2.2,0.8,4,1.8,5.1,2.9C111.7,105.4,112.3,106.5,112.3,107.6z"/>
	<path class="st1" d="M88.1,117.1c-6.6,0-12.8-1-17.5-2.8c-2.3-0.9-4.1-1.9-5.3-3c-1.3-1.2-1.9-2.4-1.9-3.7s0.7-2.5,1.9-3.7
		c1.2-1.1,3-2.1,5.3-3c4.7-1.8,10.9-2.8,17.5-2.8c6.6,0,12.8,1,17.5,2.8c2.3,0.9,4.1,1.9,5.3,3c1.3,1.2,1.9,2.4,1.9,3.7
		c0,1.3-0.7,2.5-1.9,3.7c-1.2,1.1-3,2.1-5.3,3C100.9,116.1,94.7,117.1,88.1,117.1z M88.1,99.2c-6.5,0-12.6,1-17.1,2.7
		c-2.1,0.8-3.8,1.8-5,2.8c-1.1,1-1.6,2-1.6,2.9s0.5,2,1.6,2.9c1.1,1,2.9,2,5,2.8c4.6,1.7,10.6,2.7,17.1,2.7s12.6-1,17.1-2.7
		c2.1-0.8,3.8-1.8,5-2.8c1.1-1,1.6-2,1.6-2.9c0-1-0.5-2-1.6-2.9c-1.1-1-2.9-2-5-2.8C100.6,100.1,94.5,99.2,88.1,99.2z"/>
</g>
<g>
	<path class="st3" d="M88.1,90.1L88.1,90.1L88.1,90.1c5.6-0.9,10-1.7,13.3-2.4c0.7-0.1,1.4-0.3,2-0.4c1.8-0.4,3.2-0.6,4.4-0.7
		c1.2-0.1,2-0.1,2.6,0.1c0.6,0.2,1,0.5,1.3,1c0.3,0.5,0.5,1.3,0.6,2.4c0.2,1.6,0.1,3.8,0.1,6.6c0,1.2,0,2.5,0,4
		c0,1.3-0.6,2.6-1.8,3.8c-1.2,1.2-2.9,2.3-5.2,3.2c-4.4,1.9-10.5,3-17.3,3s-12.9-1.2-17.3-3c-2.2-0.9-4-2-5.2-3.2
		c-1.2-1.2-1.8-2.5-1.8-3.8c0-2,0-3.7-0.1-5.2c0-0.4,0-0.8,0-1.2c0-1.7,0-3,0.1-4c0.1-1,0.2-1.6,0.5-2c0.2-0.3,0.5-0.5,1.1-0.6
		c0.6-0.1,1.5,0,2.6,0.2c0.6,0.1,1.2,0.2,2,0.3c0.7,0.1,1.6,0.3,2.5,0.4C76.2,89.2,81.2,89.9,88.1,90.1z"/>
	<path class="st1" d="M88.2,111.1c-6.6,0-12.9-1.1-17.5-3.1c-2.3-1-4.1-2.1-5.3-3.3c-1.3-1.3-1.9-2.7-1.9-4.1c0-2,0-3.7,0-5.2l0-1.2
		c0-1.8,0-3.1,0.1-4.1c0.1-1.1,0.3-1.7,0.6-2.2c0.3-0.5,0.8-0.7,1.5-0.8c0.6-0.1,1.4,0,2.8,0.2c0.6,0.1,1.3,0.2,2,0.3
		c0.7,0.1,1.5,0.3,2.5,0.4c3.2,0.5,8.4,1.3,15.5,1.5l0.1,0c5.5-0.9,9.7-1.7,13.1-2.4c0.7-0.1,1.4-0.3,2-0.4c1.6-0.3,3.2-0.6,4.4-0.8
		c1.2-0.1,2.1-0.1,2.8,0.1c0.7,0.2,1.2,0.6,1.6,1.2c0.3,0.6,0.5,1.4,0.7,2.6c0.2,1.6,0.1,3.9,0.1,6.7c0,1.2,0,2.5,0,4
		c0,1.4-0.7,2.8-1.9,4.1c-1.3,1.3-3,2.4-5.3,3.3C101,110,94.8,111.1,88.2,111.1z M65.9,88.1c-0.1,0-0.3,0-0.4,0
		c-0.5,0.1-0.7,0.2-0.7,0.3c-0.2,0.3-0.3,0.9-0.4,1.7c-0.1,1-0.1,2.2-0.1,4l0,1.2c0,1.5,0,3.2,0,5.2c0,1.1,0.6,2.3,1.7,3.4
		c1.1,1.1,2.9,2.2,5,3.1c4.6,1.9,10.7,3,17.1,3c6.5,0,12.6-1.1,17.1-3c2.1-0.9,3.9-2,5-3.1c1.1-1.1,1.7-2.2,1.7-3.4c0-1.5,0-2.8,0-4
		c0-2.8,0-5-0.1-6.6c-0.1-1-0.3-1.8-0.5-2.2c-0.2-0.4-0.5-0.6-1-0.7c-0.5-0.1-1.3-0.2-2.5,0c-1.2,0.1-2.8,0.4-4.4,0.7
		c-0.6,0.1-1.3,0.3-2,0.4c-3.4,0.7-7.7,1.6-13.2,2.4l-0.1,0l0-0.5l0,0.5c-7.2-0.2-12.4-0.9-15.7-1.5c-0.9-0.2-1.7-0.3-2.5-0.4
		c-0.7-0.1-1.4-0.2-2-0.3C67,88.2,66.4,88.1,65.9,88.1z"/>
</g>
<g>
	<path class="st3" d="M112.3,89c0,1.1-0.6,2.2-1.8,3.3c-1.2,1.1-2.9,2.1-5.1,2.9C101,96.9,94.8,98,88.1,98c-6.8,0-12.9-1.1-17.3-2.7
		c-2.2-0.8-4-1.8-5.1-2.9c-1.2-1.1-1.8-2.2-1.8-3.3c0-1.1,0.6-2.2,1.8-3.3c1.2-1.1,2.9-2.1,5.1-2.9c4.4-1.7,10.5-2.7,17.3-2.7
		c6.8,0,12.9,1.1,17.3,2.7c2.2,0.8,4,1.8,5.1,2.9C111.7,86.7,112.3,87.9,112.3,89z"/>
	<path class="st1" d="M88.1,98.5c-6.6,0-12.8-1-17.5-2.8c-2.3-0.9-4.1-1.9-5.3-3c-1.3-1.2-1.9-2.4-1.9-3.7c0-1.3,0.7-2.5,1.9-3.7
		c1.2-1.1,3-2.1,5.3-3c4.7-1.8,10.9-2.8,17.5-2.8s12.8,1,17.5,2.8c2.3,0.9,4.1,1.9,5.3,3c1.3,1.2,1.9,2.4,1.9,3.7s-0.7,2.5-1.9,3.7
		c-1.2,1.1-3,2.1-5.3,3C100.9,97.5,94.7,98.5,88.1,98.5z M88.1,80.5c-6.5,0-12.6,1-17.1,2.7C68.8,84,67.1,85,66,86
		c-1.1,1-1.6,2-1.6,2.9s0.5,2,1.6,2.9c1.1,1,2.9,2,5,2.8c4.6,1.7,10.6,2.7,17.1,2.7s12.6-1,17.1-2.7c2.1-0.8,3.8-1.8,5-2.8
		c1.1-1,1.6-2,1.6-2.9s-0.5-2-1.6-2.9c-1.1-1-2.9-2-5-2.8C100.6,81.5,94.5,80.5,88.1,80.5z"/>
</g>
<g>
	<path class="st3" d="M88.1,71.4L88.1,71.4L88.1,71.4c5.6-0.9,10-1.7,13.3-2.4c0.7-0.1,1.4-0.3,2-0.4c1.8-0.4,3.2-0.6,4.4-0.7
		c1.2-0.1,2-0.1,2.6,0.1c0.6,0.2,1,0.5,1.3,1c0.3,0.5,0.5,1.3,0.6,2.4c0.2,1.6,0.1,3.8,0.1,6.6c0,1.2,0,2.5,0,4
		c0,1.3-0.6,2.6-1.8,3.8c-1.2,1.2-2.9,2.3-5.2,3.2c-4.4,1.9-10.5,3-17.3,3s-12.9-1.2-17.3-3c-2.2-0.9-4-2-5.2-3.2
		c-1.2-1.2-1.8-2.5-1.8-3.8c0-2,0-3.7-0.1-5.2c0-0.4,0-0.8,0-1.2c0-1.7,0-3,0.1-4c0.1-1,0.2-1.6,0.5-2c0.2-0.3,0.5-0.5,1.1-0.6
		c0.6-0.1,1.5,0,2.6,0.2c0.6,0.1,1.2,0.2,2,0.3c0.7,0.1,1.6,0.3,2.5,0.4C76.2,70.6,81.2,71.3,88.1,71.4z"/>
	<path class="st1" d="M88.2,92.4c-6.6,0-12.9-1.1-17.5-3.1c-2.3-1-4.1-2.1-5.3-3.4c-1.3-1.3-1.9-2.7-1.9-4.1c0-2,0-3.7,0-5.2l0-1.2
		c0-1.8,0-3.1,0.1-4.1c0.1-1.1,0.3-1.7,0.6-2.2c0.3-0.5,0.8-0.7,1.5-0.8c0.6-0.1,1.4,0,2.8,0.2c0.6,0.1,1.3,0.2,2,0.3
		c0.7,0.1,1.5,0.3,2.5,0.4c3.2,0.5,8.4,1.3,15.5,1.5l0,0c5.5-0.8,9.7-1.7,13.1-2.4l2-0.4c1.8-0.4,3.2-0.6,4.4-0.8
		c1.2-0.1,2.1-0.1,2.8,0.1c0.7,0.2,1.2,0.6,1.6,1.2c0.3,0.6,0.5,1.4,0.7,2.6c0.2,1.6,0.1,3.9,0.1,6.7c0,1.2,0,2.5,0,4
		c0,1.4-0.7,2.8-1.9,4.1c-1.2,1.3-3,2.4-5.3,3.4C101,91.4,94.8,92.4,88.2,92.4z M65.9,69.5c-0.1,0-0.3,0-0.4,0
		c-0.5,0.1-0.7,0.2-0.7,0.3c-0.2,0.3-0.3,0.9-0.4,1.7c-0.1,0.9-0.1,2.2-0.1,4l0,1.2c0,1.5,0,3.2,0,5.2c0,1.1,0.6,2.3,1.7,3.4
		c1.1,1.1,2.9,2.2,5,3.1c4.6,1.9,10.7,3,17.1,3c6.5,0,12.6-1.1,17.1-3c2.1-0.9,3.9-2,5-3.1c1.1-1.1,1.7-2.2,1.7-3.4c0-1.5,0-2.8,0-4
		c0-2.8,0-5-0.1-6.6c-0.1-1-0.3-1.8-0.5-2.2c-0.2-0.4-0.5-0.6-1-0.7c-0.5-0.1-1.3-0.2-2.4,0c-1.2,0.1-2.8,0.4-4.4,0.7l-2,0.4
		c-3.5,0.7-7.7,1.6-13.2,2.4l-0.1,0l0,0c-7.2-0.2-12.4-0.9-15.7-1.5c-0.9-0.2-1.7-0.3-2.5-0.4c-0.7-0.1-1.4-0.2-2-0.3
		C67,69.5,66.4,69.5,65.9,69.5z"/>
</g>
<g>
	<path class="st3" d="M112.3,70.3c0,1.1-0.6,2.2-1.8,3.3c-1.2,1.1-2.9,2.1-5.1,2.9c-4.4,1.7-10.5,2.7-17.3,2.7
		c-6.8,0-12.9-1.1-17.3-2.7c-2.2-0.8-4-1.8-5.1-2.9c-1.2-1.1-1.8-2.2-1.8-3.3c0-1.1,0.6-2.2,1.8-3.3c1.2-1.1,2.9-2.1,5.1-2.9
		c4.4-1.7,10.5-2.7,17.3-2.7c6.8,0,12.9,1.1,17.3,2.7c2.2,0.8,4,1.8,5.1,2.9C111.7,68.1,112.3,69.2,112.3,70.3z"/>
	<path class="st1" d="M88.1,79.8c-6.6,0-12.8-1-17.5-2.8c-2.3-0.9-4.1-1.9-5.3-3c-1.3-1.2-1.9-2.4-1.9-3.7s0.7-2.5,1.9-3.7
		c1.2-1.1,3-2.1,5.3-3c4.7-1.8,10.9-2.8,17.5-2.8c6.6,0,12.8,1,17.5,2.8c2.3,0.9,4.1,1.9,5.3,3c1.3,1.2,1.9,2.4,1.9,3.7
		s-0.7,2.5-1.9,3.7c-1.2,1.1-3,2.1-5.3,3C100.9,78.8,94.7,79.8,88.1,79.8z M88.1,61.9c-6.5,0-12.6,1-17.1,2.7
		c-2.1,0.8-3.8,1.8-5,2.8c-1.1,1-1.6,2-1.6,2.9c0,1,0.5,2,1.6,2.9c1.1,1,2.9,2,5,2.8c4.6,1.7,10.6,2.7,17.1,2.7s12.6-1,17.1-2.7
		c2.1-0.8,3.8-1.8,5-2.8c1.1-1,1.6-2,1.6-2.9s-0.5-2-1.6-2.9c-1.1-1-2.9-2-5-2.8C100.6,62.8,94.5,61.9,88.1,61.9z"/>
</g>
<g>
	<rect x="27.1" y="27.4" class="st4" width="0.9" height="2.7"/>
</g>
<g>
	<rect x="34.4" y="27.4" class="st4" width="0.9" height="2.7"/>
</g>
<g>
	<rect x="41.6" y="27.4" class="st4" width="0.9" height="2.7"/>
</g>
<g>
	<rect x="30.7" y="27.4" class="st4" width="0.9" height="2.7"/>
</g>
<g>
	<rect x="38" y="27.4" class="st4" width="0.9" height="2.7"/>
</g>
<g>
	<rect x="45.2" y="27.4" class="st4" width="0.9" height="2.7"/>
</g>
<g>
	<rect x="28.9" y="27.4" class="st4" width="0.9" height="2.7"/>
</g>
<g>
	<rect x="36.2" y="27.4" class="st4" width="0.9" height="2.7"/>
</g>
<g>
	<rect x="43.4" y="27.4" class="st4" width="0.9" height="2.7"/>
</g>
<g>
	<rect x="32.5" y="27.4" class="st4" width="0.9" height="2.7"/>
</g>
<g>
	<rect x="39.8" y="27.4" class="st4" width="0.9" height="2.7"/>
</g>
<g>
	<path class="st3" d="M32.2,129.4h-1v-22.2c0-7.6,4.4-9.9,8.6-12.1c4.4-2.3,8.6-4.5,7.3-12.8l1-0.1c1.3,9-3.4,11.5-7.9,13.8
		c-4.2,2.2-8.1,4.2-8.1,11.2V129.4z"/>
</g>
<g>
	<rect x="31.2" y="69.6" class="st3" width="1" height="46"/>
</g>
<g>
	<circle class="st5" cx="47.8" cy="79.9" r="4.6"/>
</g>
<g>
	<circle class="st5" cx="31.7" cy="67.3" r="4.6"/>
</g>
<g>
	<circle class="st5" cx="31.7" cy="130.5" r="4.6"/>
</g>
<g>
	<rect x="25.3" y="29.2" class="st4" width="22.6" height="22.6"/>
</g>
</svg>
