<?xml version="1.0" encoding="utf-8"?>
<!-- Generator: Adobe Illustrator 24.3.0, SVG Export Plug-In . SVG Version: 6.00 Build 0)  -->
<svg version="1.1" id="Layer_1" xmlns="http://www.w3.org/2000/svg" xmlns:xlink="http://www.w3.org/1999/xlink" x="0px" y="0px"
	 viewBox="0 0 160 160" style="enable-background:new 0 0 160 160;" xml:space="preserve">
<style type="text/css">
	.st0{fill:#FFFFFF;}
	.st1{fill:#10162F;}
	.st2{fill:none;}
	.st3{fill-rule:evenodd;clip-rule:evenodd;fill:#10162F;}
	.st4{fill-rule:evenodd;clip-rule:evenodd;fill:#FFFFFF;}
	.st5{fill:#FFF2FF;}
	.st6{fill-rule:evenodd;clip-rule:evenodd;fill:#FFF2FF;}
</style>
<g>
	<path class="st0" d="M158,39.2H96h-1v1v18.6v1h1v-0.1c6.8,0,12.4,5.6,12.4,12.4S102.9,84.5,96,84.5h-1v1v14.8H60.5
		c0.1-0.5,0.1-1,0.1-1.5h-0.1c0-8-6.4-14.4-14.4-14.4s-14.4,6.4-14.4,14.4c0,0.5,0,1,0.1,1.5h-17h-1v1v51.1v1h1H158h1v-1v-51.1V40.2
		v-1H158z"/>
	<path class="st1" d="M159.5,153.9H13.3V99.8h17.9c0-0.3,0-0.7,0-1c0-8.2,6.7-14.9,14.9-14.9c8,0,14.6,6.4,14.9,14.4h0.1v0.5
		c0,0.3,0,0.6,0,1h33.4V84H96c6.6,0,11.9-5.3,11.9-11.9c0-6.4-5.1-11.7-11.4-11.9L96,60.3h-1.5V38.7h65V153.9z M14.3,152.9h144.2
		V39.7h-63v19.6l0.5-0.1c7.1,0,12.9,5.8,12.9,12.9S103.1,85,96,85h-0.5v15.8H59.9l0.1-0.6c0-0.3,0.1-0.6,0.1-0.9H60v-0.5
		c0-7.7-6.2-13.9-13.9-13.9s-13.9,6.2-13.9,13.9c0,0.4,0,0.9,0.1,1.4l0.1,0.6H14.3V152.9z"/>
</g>
<g>
	<rect x="-2" class="st2" width="160" height="160"/>
</g>
<g>
	<path class="st3" d="M1,13.9h68.3V29c0.7-0.1,1.5-0.2,2.2-0.2c8,0,14.5,6.5,14.5,14.5s-6.5,14.5-14.5,14.5c-0.7,0-1.5-0.1-2.2-0.2
		v18.1H48.9c0.1-0.5,0.1-1.1,0.1-1.6c0-7.5-6.1-13.7-13.7-13.7s-13.7,6.1-13.7,13.7c0,0.5,0,1.1,0.1,1.6H1V13.9z"/>
</g>
<g>
	<path class="st1" d="M69.3,13.9h1v-1h-1V13.9z M1,13.9v-1H0v1H1z M69.3,29.1h-1v1.2l1.2-0.2L69.3,29.1z M69.3,57.8l0.2-1l-1.2-0.2
		v1.2H69.3z M69.3,75.9v1h1v-1H69.3z M48.9,75.9l-1-0.1l-0.1,1.1h1.1V75.9z M21.8,75.9v1h1.1l-0.1-1.1L21.8,75.9z M1,75.9H0v1h1
		V75.9z M69.3,12.9H1v2h68.3V12.9z M70.3,29.1V13.9h-2V29h2V29.1z M69.4,30.1c0.7-0.1,1.4-0.2,2.1-0.2v-2c-0.8,0-1.6,0.1-2.4,0.2
		L69.4,30.1z M71.5,29.9C78.9,29.9,85,36,85,43.4h2c0-8.6-7-15.5-15.5-15.5V29.9z M85,43.4C85,50.9,78.9,57,71.5,57v2
		C80.1,59,87,52,87,43.4H85z M71.5,57c-0.7,0-1.4-0.1-2.1-0.2l-0.3,2c0.8,0.1,1.6,0.2,2.4,0.2V57z M70.3,75.9V57.8h-2v18.1H70.3z
		 M48.9,76.9h20.4v-2H48.9V76.9z M48,74.3c0,0.5,0,1-0.1,1.5l2,0.2c0.1-0.6,0.1-1.1,0.1-1.7H48z M35.3,61.6c7,0,12.7,5.7,12.7,12.7
		h2c0-8.1-6.6-14.7-14.7-14.7V61.6z M22.7,74.3c0-7,5.7-12.7,12.7-12.7v-2c-8.1,0-14.7,6.6-14.7,14.7H22.7z M22.8,75.8
		c-0.1-0.5-0.1-1-0.1-1.5h-2c0,0.6,0,1.2,0.1,1.7L22.8,75.8z M1,76.9h20.8v-2H1V76.9z M0,13.9v62h2v-62C2,13.9,0,13.9,0,13.9z"/>
</g>
<g>
	<circle class="st1" cx="6.6" cy="20.3" r="0.9"/>
</g>
<g>
	<path class="st1" d="M6.6,21.7c-0.8,0-1.4-0.6-1.4-1.4s0.6-1.4,1.4-1.4C7.3,19,8,19.6,8,20.3C8,21.1,7.3,21.7,6.6,21.7z M6.6,20
		c-0.2,0-0.4,0.2-0.4,0.4s0.2,0.4,0.4,0.4S7,20.6,7,20.3S6.8,20,6.6,20z"/>
</g>
<g>
	<circle class="st1" cx="10.5" cy="20.3" r="0.9"/>
</g>
<g>
	<path class="st1" d="M10.5,21.7c-0.8,0-1.4-0.6-1.4-1.4s0.6-1.4,1.4-1.4c0.8,0,1.4,0.6,1.4,1.4C11.8,21.1,11.2,21.7,10.5,21.7z
		 M10.5,20c-0.2,0-0.4,0.2-0.4,0.4s0.2,0.4,0.4,0.4s0.4-0.2,0.4-0.4S10.7,20,10.5,20z"/>
</g>
<g>
	<circle class="st1" cx="14.3" cy="20.3" r="0.9"/>
</g>
<g>
	<path class="st1" d="M14.3,21.7c-0.8,0-1.4-0.6-1.4-1.4s0.6-1.4,1.4-1.4c0.8,0,1.4,0.6,1.4,1.4S15.1,21.7,14.3,21.7z M14.3,20
		c-0.2,0-0.4,0.2-0.4,0.4s0.2,0.4,0.4,0.4s0.4-0.2,0.4-0.4S14.6,20,14.3,20z"/>
</g>
<g>
	<path class="st4" d="M158,40.2H96v18.6c7.4,0,13.4,6,13.4,13.4s-6,13.4-13.4,13.4v15.8H59.2c0.2-0.8,0.2-1.7,0.2-2.5
		c0-7.4-6-13.4-13.4-13.4s-13.4,6-13.4,13.4c0,0.9,0.1,1.7,0.2,2.5h-18v51.1H158v-51.1V40.2z"/>
</g>
<g>
	<path class="st4" d="M3.9,10h68.3v15.1c0.7-0.1,1.5-0.2,2.2-0.2c8,0,14.5,6.5,14.5,14.5s-6.5,14.5-14.5,14.5
		c-0.7,0-1.5-0.1-2.2-0.2V72H51.9c0.1-0.5,0.1-1.1,0.1-1.6c0-7.5-6.1-13.7-13.7-13.7c-7.5,0-13.7,6.1-13.7,13.7c0,0.5,0,1.1,0.1,1.6
		H3.9V10z"/>
	<path class="st1" d="M72.7,72.5H51.3l0.1-0.6c0.1-0.5,0.1-1,0.1-1.5c0-7.3-5.9-13.2-13.2-13.2s-13.2,5.9-13.2,13.2
		c0,0.5,0,1.1,0.1,1.5l0.1,0.6H3.4v-63h69.3v15c0.6-0.1,1.2-0.1,1.7-0.1c8.3,0,15,6.7,15,15s-6.7,15-15,15c-0.5,0-1.1-0.1-1.7-0.1
		C72.7,54.3,72.7,72.5,72.7,72.5z M52.5,71.5h19.2V53.1l0.6,0.1c0.7,0.1,1.5,0.2,2.1,0.2c7.7,0,14-6.3,14-14s-6.3-14-14-14
		c-0.7,0-1.5,0.1-2.1,0.2l-0.6,0.1V10.5H4.4v61h19.7c0-0.4,0-0.8,0-1.1c0-7.8,6.4-14.2,14.2-14.2s14.2,6.4,14.2,14.2
		C52.5,70.7,52.5,71.1,52.5,71.5z"/>
</g>
<g>
	<circle class="st1" cx="9.5" cy="16.4" r="0.9"/>
</g>
<g>
	<path class="st1" d="M9.5,17.8c-0.8,0-1.4-0.6-1.4-1.4c0-0.8,0.6-1.4,1.4-1.4s1.4,0.6,1.4,1.4C10.9,17.2,10.3,17.8,9.5,17.8z
		 M9.5,16c-0.2,0-0.4,0.2-0.4,0.4s0.2,0.4,0.4,0.4s0.4-0.2,0.4-0.4S9.7,16,9.5,16z"/>
</g>
<g>
	<circle class="st1" cx="13.4" cy="16.4" r="0.9"/>
</g>
<g>
	<path class="st1" d="M13.4,17.8c-0.8,0-1.4-0.6-1.4-1.4c0-0.8,0.6-1.4,1.4-1.4c0.8,0,1.4,0.6,1.4,1.4
		C14.8,17.2,14.2,17.8,13.4,17.8z M13.4,16c-0.2,0-0.4,0.2-0.4,0.4s0.2,0.4,0.4,0.4s0.4-0.2,0.4-0.4S13.6,16,13.4,16z"/>
</g>
<g>
	<circle class="st1" cx="17.3" cy="16.4" r="0.9"/>
</g>
<g>
	<path class="st5" d="M22.4,72h2.3c-0.1-0.5-0.1-1.1-0.1-1.6c0-7.6,6.2-13.7,13.7-13.7c7.6,0,13.7,6.2,13.7,13.7
		c0,0.5,0,1.1-0.1,1.6h20.3V53.7c0.7,0.1,1.5,0.2,2.2,0.2c8,0,14.5-6.5,14.5-14.5c0-6.1-3.8-11.4-9.2-13.5H22.4V72z"/>
</g>
<g>
	<path class="st1" d="M17.3,17.8c-0.8,0-1.4-0.6-1.4-1.4c0-0.8,0.6-1.4,1.4-1.4s1.4,0.6,1.4,1.4C18.7,17.2,18.1,17.8,17.3,17.8z
		 M17.3,16c-0.2,0-0.4,0.2-0.4,0.4s0.2,0.4,0.4,0.4s0.4-0.2,0.4-0.4S17.5,16,17.3,16z"/>
</g>
<g>
	<circle class="st1" cx="9.5" cy="16.4" r="0.9"/>
</g>
<g>
	<path class="st1" d="M9.5,17.8c-0.8,0-1.4-0.6-1.4-1.4c0-0.8,0.6-1.4,1.4-1.4s1.4,0.6,1.4,1.4C10.9,17.2,10.3,17.8,9.5,17.8z
		 M9.5,16c-0.2,0-0.4,0.2-0.4,0.4s0.2,0.4,0.4,0.4s0.4-0.2,0.4-0.4S9.7,16,9.5,16z"/>
</g>
<g>
	<circle class="st1" cx="13.4" cy="16.4" r="0.9"/>
</g>
<g>
	<path class="st1" d="M13.4,17.8c-0.8,0-1.4-0.6-1.4-1.4c0-0.8,0.6-1.4,1.4-1.4c0.8,0,1.4,0.6,1.4,1.4
		C14.8,17.2,14.2,17.8,13.4,17.8z M13.4,16c-0.2,0-0.4,0.2-0.4,0.4s0.2,0.4,0.4,0.4s0.4-0.2,0.4-0.4S13.6,16,13.4,16z"/>
</g>
<g>
	<circle class="st1" cx="17.3" cy="16.4" r="0.9"/>
</g>
<g>
	<path class="st1" d="M17.3,17.8c-0.8,0-1.4-0.6-1.4-1.4c0-0.8,0.6-1.4,1.4-1.4s1.4,0.6,1.4,1.4C18.7,17.2,18.1,17.8,17.3,17.8z
		 M17.3,16c-0.2,0-0.4,0.2-0.4,0.4s0.2,0.4,0.4,0.4s0.4-0.2,0.4-0.4S17.5,16,17.3,16z"/>
</g>
<g>
	<path class="st6" d="M32,101.3v34h107.5V56H96v2.8c7.4,0,13.4,6,13.4,13.4c0,7.4-6,13.4-13.4,13.4v15.8H59.2
		c0.2-0.8,0.2-1.7,0.2-2.5c0-7.4-6-13.4-13.4-13.4s-13.4,6-13.4,13.4c0,0.9,0.1,1.7,0.2,2.5L32,101.3L32,101.3z"/>
	<path class="st5" d="M140,135.8H31.5v-34.5H32v-0.4h0.2c-0.1-0.6-0.1-1.3-0.1-2C32.1,91.2,38.3,85,46,85s13.9,6.2,13.9,13.9
		c0,0.6,0,1.3-0.1,2h35.7V85.1H96c7.1,0,12.9-5.8,12.9-12.9S103.1,59.3,96,59.3h-0.5v-3.8H140V135.8z M32.5,134.8H139V56.5H96.5v1.8
		c7.4,0.3,13.4,6.4,13.4,13.9s-6,13.6-13.4,13.9v15.8H58.6l0.2-0.6c0.2-0.7,0.2-1.6,0.2-2.4C58.9,91.8,53.1,86,46,86
		s-12.9,5.8-12.9,12.9c0,0.9,0.1,1.6,0.2,2.4l0.1,0.6h-0.9C32.5,101.9,32.5,134.8,32.5,134.8z"/>
</g>
<g>
	<path class="st1" d="M72.7,72.5H51.3l0.1-0.6c0.1-0.5,0.1-1,0.1-1.5c0-7.3-5.9-13.2-13.2-13.2s-13.2,5.9-13.2,13.2
		c0,0.5,0,1.1,0.1,1.5l0.1,0.6H3.4v-63h69.3v15c0.6-0.1,1.2-0.1,1.7-0.1c8.3,0,15,6.7,15,15s-6.7,15-15,15c-0.5,0-1.1-0.1-1.7-0.1
		C72.7,54.3,72.7,72.5,72.7,72.5z M52.5,71.5h19.2V53.1l0.6,0.1c0.7,0.1,1.5,0.2,2.1,0.2c7.7,0,14-6.3,14-14s-6.3-14-14-14
		c-0.7,0-1.5,0.1-2.1,0.2l-0.6,0.1V10.5H4.4v61h19.7c0-0.4,0-0.8,0-1.1c0-7.8,6.4-14.2,14.2-14.2s14.2,6.4,14.2,14.2
		C52.5,70.7,52.5,71.1,52.5,71.5z"/>
</g>
</svg>
